<svg xmlns="http://www.w3.org/2000/svg" version="1.1" xmlns:xlink="http://www.w3.org/1999/xlink" xmlns:svgjs="http://svgjs.dev/svgjs" width="1000" height="1000" viewBox="0 0 1000 1000"><rect width="1000" height="1000" fill="#ffffff"></rect><g transform="matrix(0.7,0,0,0.7,149.57575757575756,403.39329482224406)"><svg viewBox="0 0 396 110" data-background-color="#ffffff" preserveAspectRatio="xMidYMid meet" height="277" width="1000" xmlns="http://www.w3.org/2000/svg" xmlns:xlink="http://www.w3.org/1999/xlink"><g id="tight-bounds" transform="matrix(1,0,0,1,0.2400000000000091,-0.19475209101003088)"><svg viewBox="0 0 395.52 110.38950418202005" height="110.38950418202005" width="395.52"><g><svg viewBox="0 0 690.4164791424436 192.69501621063495" height="110.38950418202005" width="395.52"><g><rect width="8.09306276759591" height="192.69501621063495" x="265.61738818742384" y="0" fill="#000000" opacity="1" stroke-width="0" stroke="transparent" fill-opacity="1" class="rect-r$-0" data-fill-palette-color="primary" rx="1%" id="r$-0" data-palette-color="#0f172a"></rect></g><g transform="matrix(1,0,0,1,294.8964791424436,0.47934083634484637)"><svg viewBox="0 0 395.52 191.73633453794525" height="191.73633453794525" width="395.52"><g id="textblocktransform"><svg viewBox="0 0 395.52 191.73633453794525" height="191.73633453794525" width="395.52" id="textblock"><g><svg viewBox="0 0 395.52 191.73633453794525" height="191.73633453794525" width="395.52"><g transform="matrix(1,0,0,1,0,0)"><svg width="395.52" viewBox="1.3499999999999985 -36.50000000000001 193.70000000000005 90.15" height="191.73633453794525" data-palette-color="#0f172a"><svg></svg><svg></svg><g class="wordmark-text-0" data-fill-palette-color="primary" id="text-0"><path d="M15.15-17.7v13.2h-0.5v-27h0.5v13.3h10.85l5.75-13.3h0.55l-5.75 13.3h2.05c2.033 0 3.55 0.383 4.55 1.15 1 0.767 1.5 2.017 1.5 3.75v0 8.8h-0.5v-8.8c0-1.6-0.467-2.733-1.4-3.4-0.933-0.667-2.317-1-4.15-1v0zM11 0h7.75c0.633 0 1.093-0.143 1.38-0.43 0.28-0.28 0.42-0.737 0.42-1.37v0-11.45h6.6c0.533 0 0.933 0.15 1.2 0.45 0.267 0.3 0.4 0.717 0.4 1.25v0 9.75c0 0.633 0.143 1.09 0.43 1.37 0.28 0.287 0.737 0.43 1.37 0.43v0h7.7c0.633 0 1.093-0.143 1.38-0.43 0.28-0.28 0.42-0.737 0.42-1.37v0-14.1c0-2-0.557-3.61-1.67-4.83-1.12-1.213-2.613-1.87-4.48-1.97v0l5.1-11.65c0.233-0.533 0.25-0.943 0.05-1.23-0.2-0.28-0.583-0.42-1.15-0.42v0h-7.7c-0.633 0-1.15 0.123-1.55 0.37-0.4 0.253-0.717 0.68-0.95 1.28v0l-5.15 11.65h-2v-11.5c0-0.633-0.14-1.093-0.42-1.38-0.287-0.28-0.747-0.42-1.38-0.42v0h-7.75c-0.633 0-1.09 0.14-1.37 0.42-0.287 0.287-0.43 0.747-0.43 1.38v0 32.4c0 0.633 0.143 1.09 0.43 1.37 0.28 0.287 0.737 0.43 1.37 0.43zM20.35 0.05v0l-6.5 5.4c-0.133 0.133-0.34 0.25-0.62 0.35-0.287 0.1-0.597 0.15-0.93 0.15v0h-7.75c-0.8 0-1.383-0.183-1.75-0.55-0.367-0.367-0.55-0.95-0.55-1.75v0-32.4c0-0.433 0.06-0.8 0.18-1.1 0.113-0.3 0.287-0.55 0.52-0.75v0l6.45-5.45c0.167-0.133 0.393-0.243 0.68-0.33 0.28-0.08 0.587-0.12 0.92-0.12v0h7.75c0.8 0 1.383 0.183 1.75 0.55 0.367 0.367 0.55 0.95 0.55 1.75v0 4.55c0.1-0.133 0.2-0.277 0.3-0.43 0.1-0.147 0.217-0.27 0.35-0.37v0l6.45-5.45c0.233-0.2 0.527-0.35 0.88-0.45 0.347-0.1 0.737-0.15 1.17-0.15v0h7.7c0.833 0 1.383 0.207 1.65 0.62 0.267 0.42 0.233 0.997-0.1 1.73v0l-4.8 11c1.8 0.233 3.233 1 4.3 2.3 1.067 1.3 1.6 2.95 1.6 4.95v0 14.1c0 0.433-0.057 0.8-0.17 1.1-0.12 0.3-0.297 0.55-0.53 0.75v0l-6.5 5.4c-0.133 0.133-0.34 0.25-0.62 0.35-0.287 0.1-0.597 0.15-0.93 0.15v0h-7.7c-0.8 0-1.383-0.183-1.75-0.55-0.367-0.367-0.55-0.95-0.55-1.75v0-9.75c0-0.333-0.067-0.6-0.2-0.8-0.133-0.2-0.317-0.317-0.55-0.35v0 5.45c0 0.433-0.057 0.8-0.17 1.1-0.12 0.3-0.297 0.55-0.53 0.75z" fill="#000000" fill-rule="nonzero" stroke="none" stroke-width="1" stroke-linecap="butt" stroke-linejoin="miter" stroke-miterlimit="10" stroke-dasharray="" stroke-dashoffset="0" font-family="none" font-weight="none" font-size="none" text-anchor="none" style="mix-blend-mode: normal" data-fill-palette-color="primary" opacity="1"></path><path transform="translate(0,46.95)" d="M19.45 5.95h-15.8c-0.8 0-1.383-0.183-1.75-0.55-0.367-0.367-0.55-0.95-0.55-1.75v0-5.85c0-0.433 0.06-0.8 0.18-1.1 0.113-0.3 0.287-0.55 0.52-0.75v0l5-4.2c-1.767-0.533-3.157-1.443-4.17-2.73-1.02-1.28-1.53-3.12-1.53-5.52v0-5.25c0-1.5 0.25-2.833 0.75-4 0.5-1.167 1.217-2.15 2.15-2.95v0l6.5-5.45c0.9-0.733 2.017-1.31 3.35-1.73 1.333-0.413 2.85-0.62 4.55-0.62v0h14c0.8 0 1.383 0.183 1.75 0.55 0.367 0.367 0.55 0.95 0.55 1.75v0 5.95c0 0.433-0.06 0.8-0.18 1.1-0.113 0.3-0.287 0.55-0.52 0.75v0l-4.5 3.75c2.1 0.467 3.793 1.34 5.08 2.62 1.28 1.287 1.92 3.28 1.92 5.98v0 5.25c0 1.5-0.25 2.833-0.75 4-0.5 1.167-1.233 2.15-2.2 2.95v0l-6.45 5.4c-0.933 0.767-2.067 1.36-3.4 1.78-1.333 0.413-2.833 0.62-4.5 0.62zM10.1 0h15.8c3.2 0 5.727-0.757 7.58-2.27 1.847-1.52 2.77-3.697 2.77-6.53v0-5.25c0-2.8-0.717-4.8-2.15-6-1.433-1.2-3.317-1.967-5.65-2.3v0l-7.45-1c-0.433-0.033-0.767-0.2-1-0.5-0.233-0.3-0.35-0.667-0.35-1.1v0c0-0.433 0.117-0.793 0.35-1.08 0.233-0.28 0.567-0.42 1-0.42v0h11.65c0.633 0 1.09-0.143 1.37-0.43 0.287-0.28 0.43-0.737 0.43-1.37v0-5.95c0-0.633-0.143-1.093-0.43-1.38-0.28-0.28-0.737-0.42-1.37-0.42v0h-14c-3.233 0-5.767 0.757-7.6 2.27-1.833 1.52-2.75 3.697-2.75 6.53v0 5.25c0 2.8 0.71 4.8 2.13 6 1.413 1.2 3.287 1.967 5.62 2.3v0l7.5 1.05c0.433 0.033 0.76 0.183 0.98 0.45 0.213 0.267 0.32 0.683 0.32 1.25v0c0 0.4-0.107 0.74-0.32 1.02-0.22 0.287-0.547 0.43-0.98 0.43v0h-13.45c-0.633 0-1.093 0.14-1.38 0.42-0.28 0.287-0.42 0.747-0.42 1.38v0 5.85c0 0.633 0.14 1.09 0.42 1.37 0.287 0.287 0.747 0.43 1.38 0.43zM18.85-31.5h11.1v0.5h-11.1c-1.4 0-2.517 0.383-3.35 1.15-0.833 0.767-1.25 1.733-1.25 2.9v0 4.1c0 1.167 0.233 1.983 0.7 2.45 0.467 0.467 1.083 0.767 1.85 0.9v0l10.55 2.15c1 0.2 1.827 0.633 2.48 1.3 0.647 0.667 0.97 1.867 0.97 3.6v0 2.9c0 1.467-0.5 2.673-1.5 3.62-1 0.953-2.35 1.43-4.05 1.43v0h-12.45v-0.5h12.45c1.533 0 2.76-0.427 3.68-1.28 0.913-0.847 1.37-1.937 1.37-3.27v0-2.9c0-1.567-0.273-2.643-0.82-3.23-0.553-0.58-1.297-0.97-2.23-1.17v0l-10.55-2.15c-0.867-0.167-1.573-0.51-2.12-1.03-0.553-0.513-0.83-1.453-0.83-2.82v0-4.1c0-1.333 0.467-2.427 1.4-3.28 0.933-0.847 2.167-1.27 3.7-1.27zM56.75 5.95v0h-8.1c-0.8 0-1.383-0.183-1.75-0.55-0.367-0.367-0.55-0.95-0.55-1.75v0-24.05h-6.85c-0.8 0-1.383-0.183-1.75-0.55-0.367-0.367-0.55-0.95-0.55-1.75v0-6.05c0-0.433 0.06-0.8 0.18-1.1 0.113-0.3 0.287-0.55 0.52-0.75v0l6.45-5.45c0.167-0.133 0.39-0.243 0.67-0.33 0.287-0.08 0.597-0.12 0.93-0.12v0h26.4c0.8 0 1.383 0.183 1.75 0.55 0.367 0.367 0.55 0.95 0.55 1.75v0 6.05c0 0.433-0.06 0.8-0.18 1.1-0.113 0.3-0.287 0.55-0.52 0.75v0l-6.5 5.4c-0.133 0.133-0.34 0.25-0.62 0.35-0.287 0.1-0.597 0.15-0.93 0.15v0h-0.4v18.6c0 0.433-0.057 0.8-0.17 1.1-0.12 0.3-0.297 0.55-0.53 0.75v0l-6.5 5.4c-0.133 0.133-0.343 0.25-0.63 0.35-0.28 0.1-0.587 0.15-0.92 0.15zM55.1 0h8.1c0.633 0 1.093-0.143 1.38-0.43 0.28-0.28 0.42-0.737 0.42-1.37v0-24.55h7.35c0.633 0 1.09-0.143 1.37-0.43 0.287-0.28 0.43-0.737 0.43-1.37v0-6.05c0-0.633-0.143-1.093-0.43-1.38-0.28-0.28-0.737-0.42-1.37-0.42v0h-26.4c-0.633 0-1.09 0.14-1.37 0.42-0.287 0.287-0.43 0.747-0.43 1.38v0 6.05c0 0.633 0.143 1.09 0.43 1.37 0.28 0.287 0.737 0.43 1.37 0.43v0h7.35v24.55c0 0.633 0.143 1.09 0.43 1.37 0.28 0.287 0.737 0.43 1.37 0.43zM59.4-4.5h-0.5v-26.5h-10.25v-0.5h21v0.5h-10.25zM111.75-1.85l-6.45 5.4c-1.167 1-2.8 1.777-4.9 2.33-2.1 0.547-4.8 0.82-8.1 0.82v0c-3.267 0-5.94-0.34-8.02-1.02-2.087-0.687-3.72-1.597-4.9-2.73-1.187-1.133-2.003-2.433-2.45-3.9-0.453-1.467-0.68-2.983-0.68-4.55v0-15.55c0-1.533 0.217-2.96 0.65-4.28 0.433-1.313 1.217-2.437 2.35-3.37v0l6.5-5.4c1.167-1 2.793-1.777 4.88-2.33 2.08-0.547 4.787-0.82 8.12-0.82v0c3.267 0 5.943 0.267 8.03 0.8 2.08 0.533 3.713 1.273 4.9 2.22 1.18 0.953 1.987 2.087 2.42 3.4 0.433 1.32 0.65 2.763 0.65 4.33v0 17.05c0 1.533-0.217 2.95-0.65 4.25-0.433 1.3-1.217 2.417-2.35 3.35zM114.25-9.45v0-17.05c0-1.533-0.223-2.927-0.67-4.18-0.453-1.247-1.253-2.32-2.4-3.22-1.153-0.9-2.737-1.6-4.75-2.1-2.02-0.5-4.58-0.75-7.68-0.75v0c-3.1 0-5.667 0.25-7.7 0.75-2.033 0.5-3.623 1.2-4.77 2.1-1.153 0.9-1.953 1.973-2.4 3.22-0.453 1.253-0.68 2.647-0.68 4.18v0 17.05c0 1.533 0.227 2.923 0.68 4.17 0.447 1.253 1.247 2.32 2.4 3.2 1.147 0.887 2.737 1.58 4.77 2.08 2.033 0.5 4.6 0.75 7.7 0.75v0c3.1 0 5.66-0.25 7.68-0.75 2.013-0.5 3.597-1.193 4.75-2.08 1.147-0.88 1.947-1.947 2.4-3.2 0.447-1.247 0.67-2.637 0.67-4.17zM108.8-25.35v14.75c0 2-0.717 3.623-2.15 4.87-1.433 1.253-4.1 1.88-8 1.88v0c-3.9 0-6.55-0.627-7.95-1.88-1.4-1.247-2.1-2.87-2.1-4.87v0-14.75c0-2 0.7-3.627 2.1-4.88 1.4-1.247 4.05-1.87 7.95-1.87v0c3.9 0 6.567 0.623 8 1.87 1.433 1.253 2.15 2.88 2.15 4.88zM89.1-25.35v14.75c0 1.867 0.667 3.373 2 4.52 1.333 1.153 3.85 1.73 7.55 1.73v0c3.7 0 6.233-0.577 7.6-1.73 1.367-1.147 2.05-2.653 2.05-4.52v0-14.75c0-1.867-0.683-3.377-2.05-4.53-1.367-1.147-3.9-1.72-7.6-1.72v0c-3.7 0-6.217 0.573-7.55 1.72-1.333 1.153-2 2.663-2 4.53zM94.55-11.25v0-13.45c0-0.633 0.25-1.177 0.75-1.63 0.5-0.447 1.65-0.67 3.45-0.67v0c1.8 0 2.95 0.223 3.45 0.67 0.5 0.453 0.75 0.997 0.75 1.63v0 13.45c0 0.667-0.25 1.223-0.75 1.67-0.5 0.453-1.65 0.68-3.45 0.68v0c-1.8 0-2.95-0.227-3.45-0.68-0.5-0.447-0.75-1.003-0.75-1.67zM95.05-20.7v9.45c0 0.333 0.067 0.623 0.2 0.87 0.133 0.253 0.383 0.463 0.75 0.63v0-9.5c0-0.333-0.067-0.627-0.2-0.88-0.133-0.247-0.383-0.437-0.75-0.57zM142.4-31v0h-10.9v14.45h10.9c2.067 0 3.45-0.5 4.15-1.5 0.7-1 1.05-2.417 1.05-4.25v0-3.5c0-1.533-0.423-2.783-1.27-3.75-0.853-0.967-2.163-1.45-3.93-1.45zM136.9-20.6v-6.4h3.75c0.867 0 1.45 0.223 1.75 0.67 0.3 0.453 0.45 1.013 0.45 1.68v0 1.7c0 0.667-0.15 1.223-0.45 1.67-0.3 0.453-0.883 0.68-1.75 0.68v0zM131.5-16.1v11.6h-0.5v-27h11.4c1.933 0 3.367 0.54 4.3 1.62 0.933 1.087 1.4 2.447 1.4 4.08v0 3.45c0 1.533-0.2 2.793-0.6 3.78-0.4 0.98-1.2 1.653-2.4 2.02v0h0.55c2.033 0 3.55 0.457 4.55 1.37 1 0.92 1.5 2.247 1.5 3.98v0 6.7h-0.5v-6.7c0-1.633-0.45-2.86-1.35-3.68-0.9-0.813-2.3-1.22-4.2-1.22v0zM127.4 0h7.7c0.633 0 1.093-0.143 1.38-0.43 0.28-0.28 0.42-0.737 0.42-1.37v0-9.8h7c0.7 0 1.193 0.173 1.48 0.52 0.28 0.353 0.42 0.897 0.42 1.63v0 7.65c0 0.633 0.143 1.09 0.43 1.37 0.28 0.287 0.737 0.43 1.37 0.43v0h7.75c0.633 0 1.093-0.143 1.38-0.43 0.28-0.28 0.42-0.737 0.42-1.37v0-10.6c0-2.1-0.557-3.783-1.67-5.05-1.12-1.267-2.58-2-4.38-2.2v0c1.033-0.433 1.76-1.143 2.18-2.13 0.413-0.98 0.62-2.17 0.62-3.57v0-2.3c0-2.467-0.707-4.477-2.12-6.03-1.42-1.547-3.997-2.32-7.73-2.32v0h-16.65c-0.633 0-1.09 0.14-1.37 0.42-0.287 0.287-0.43 0.747-0.43 1.38v0 32.4c0 0.633 0.143 1.09 0.43 1.37 0.28 0.287 0.737 0.43 1.37 0.43zM136.7 0.05v0l-6.5 5.4c-0.133 0.133-0.34 0.25-0.62 0.35-0.287 0.1-0.597 0.15-0.93 0.15v0h-7.7c-0.8 0-1.383-0.183-1.75-0.55-0.367-0.367-0.55-0.95-0.55-1.75v0-32.4c0-0.433 0.06-0.8 0.18-1.1 0.113-0.3 0.287-0.55 0.52-0.75v0l6.45-5.45c0.167-0.133 0.393-0.243 0.68-0.33 0.28-0.08 0.587-0.12 0.92-0.12v0h16.65c3.967 0 6.683 0.827 8.15 2.48 1.467 1.647 2.2 3.77 2.2 6.37v0 2.3c0 1.233-0.15 2.307-0.45 3.22-0.3 0.92-0.783 1.663-1.45 2.23v0h-0.05c1.567 0.433 2.827 1.3 3.78 2.6 0.947 1.3 1.42 2.933 1.42 4.9v0 10.6c0 0.433-0.057 0.8-0.17 1.1-0.12 0.3-0.297 0.55-0.53 0.75v0l-6.5 5.4c-0.133 0.133-0.34 0.25-0.62 0.35-0.287 0.1-0.597 0.15-0.93 0.15v0h-7.75c-0.8 0-1.383-0.183-1.75-0.55-0.367-0.367-0.55-0.95-0.55-1.75v0-7.65c0-0.533-0.1-0.943-0.3-1.23-0.2-0.28-0.567-0.42-1.1-0.42v0h-0.05v3.85c0 0.433-0.057 0.8-0.17 1.1-0.12 0.3-0.297 0.55-0.53 0.75zM186.3 5.95v0h-23.2c-0.8 0-1.383-0.183-1.75-0.55-0.367-0.367-0.55-0.95-0.55-1.75v0-32.4c0-0.433 0.06-0.8 0.18-1.1 0.113-0.3 0.287-0.55 0.52-0.75v0l6.45-5.45c0.167-0.133 0.393-0.243 0.68-0.33 0.28-0.08 0.587-0.12 0.92-0.12v0h23.2c0.8 0 1.383 0.183 1.75 0.55 0.367 0.367 0.55 0.95 0.55 1.75v0 5.85c0 0.433-0.057 0.8-0.17 1.1-0.12 0.3-0.297 0.55-0.53 0.75v0l-4.3 3.55c0.333 0.167 0.577 0.417 0.73 0.75 0.147 0.333 0.22 0.767 0.22 1.3v0 5.35c0 0.433-0.057 0.8-0.17 1.1-0.12 0.3-0.297 0.55-0.53 0.75v0l-4.45 3.75h6.9c0.8 0 1.383 0.183 1.75 0.55 0.367 0.367 0.55 0.95 0.55 1.75v0 5.85c0 0.433-0.057 0.8-0.17 1.1-0.12 0.3-0.297 0.55-0.53 0.75v0l-6.5 5.4c-0.133 0.133-0.34 0.25-0.62 0.35-0.287 0.1-0.597 0.15-0.93 0.15zM169.55 0h23.2c0.633 0 1.093-0.143 1.38-0.43 0.28-0.28 0.42-0.737 0.42-1.37v0-5.85c0-0.633-0.14-1.093-0.42-1.38-0.287-0.28-0.747-0.42-1.38-0.42v0h-13.8v-4.3h9.75c0.633 0 1.093-0.143 1.38-0.43 0.28-0.28 0.42-0.737 0.42-1.37v0-5.35c0-0.633-0.14-1.093-0.42-1.38-0.287-0.28-0.747-0.42-1.38-0.42v0h-9.75v-3.85h13.8c0.633 0 1.093-0.143 1.38-0.43 0.28-0.28 0.42-0.737 0.42-1.37v0-5.85c0-0.633-0.14-1.093-0.42-1.38-0.287-0.28-0.747-0.42-1.38-0.42v0h-23.2c-0.633 0-1.09 0.14-1.37 0.42-0.287 0.287-0.43 0.747-0.43 1.38v0 32.4c0 0.633 0.143 1.09 0.43 1.37 0.28 0.287 0.737 0.43 1.37 0.43zM173.7-5h16.35v0.5h-16.85v-27h16.85v0.5h-16.35v12.55h12.3v0.5h-12.3z" fill="#000000" fill-rule="nonzero" stroke="none" stroke-width="1" stroke-linecap="butt" stroke-linejoin="miter" stroke-miterlimit="10" stroke-dasharray="" stroke-dashoffset="0" font-family="none" font-weight="none" font-size="none" text-anchor="none" style="mix-blend-mode: normal" data-fill-palette-color="primary" opacity="1"></path></g></svg></g></svg></g></svg></g></svg></g><g transform="matrix(1,0,0,1,0,4.024534634811275)"><svg viewBox="0 0 244.43135999999998 184.6459469410124" height="184.6459469410124" width="244.43135999999998"><g><svg xmlns="http://www.w3.org/2000/svg" xmlns:xlink="http://www.w3.org/1999/xlink" version="1.1" x="0" y="0" viewBox="11.470664638202697 20.89469801512286 77.0582892840505 58.2106191059444" enable-background="new 0 0 100 100" xml:space="preserve" height="184.6459469410124" width="244.43135999999998" class="icon-icon-0" data-fill-palette-color="accent" id="icon-0"><g fill="#08adf0" data-fill-palette-color="accent"><g fill="#08adf0" data-fill-palette-color="accent"><path fill-rule="evenodd" clip-rule="evenodd" d="M50.164 20.904c9.452 0 18.904 0 28.356 0 0.531 0 0.506 0.005 0.606 0.511 0.124 0.639 0.296 1.268 0.443 1.902 0.103 0.443 0.195 0.889 0.293 1.333 0.152 0.686 0.304 1.372 0.458 2.057 0.093 0.414 0.268 0.827 0.268 1.24 0 0.827 0.569 1.183 1.126 1.585 0.604 0.437 1.197 0.889 1.794 1.335 0.764 0.57 1.529 1.138 2.29 1.712 0.836 0.632 1.671 1.267 2.353 2.074 0.237 0.281 0.378 0.603 0.375 0.995-0.013 1.841 0.026 3.682-0.021 5.521-0.025 0.98-0.159 1.959-0.45 2.911-0.17 0.562-0.225 1.165-0.428 1.713-0.246 0.663-0.542 1.32-0.911 1.922-0.482 0.784-1.017 1.554-1.743 2.14-0.617 0.5-1.266 0.965-1.938 1.39-0.431 0.271-0.929 0.436-1.392 0.66-0.067 0.034-0.127 0.132-0.145 0.212-0.025 0.109-0.01 0.228-0.01 0.343 0.001 7.414 0.008 14.827-0.011 22.241-0.001 0.558-0.215 1.112-0.291 1.673-0.084 0.615-0.442 1.087-0.84 1.49-0.401 0.408-0.872 0.735-1.482 0.904-1.373 0.381-2.757 0.203-4.136 0.228-1.976 0.035-3.952 0.012-5.929 0.013-0.466 0-0.467-0.001-0.467-0.459 0-6.012 0-12.024 0-18.037 0-0.474-0.001-0.474-0.479-0.474-2.823 0-5.646 0-8.469 0-0.482 0-0.482 0-0.482 0.471 0 6.023 0 12.046 0 18.068 0 0.521-0.001 0.521-0.504 0.521C46.7 79.102 35 79.111 23.298 79.1c-0.548 0-1.094-0.204-1.646-0.271-0.591-0.073-1.065-0.387-1.455-0.768-0.417-0.408-0.858-0.838-0.948-1.487-0.055-0.397-0.186-0.785-0.276-1.177-0.034-0.14-0.07-0.284-0.07-0.426-0.005-7.298-0.007-14.597-0.009-21.895 0-0.589-0.003-0.575-0.605-0.699-0.882-0.181-1.7-0.528-2.417-1.072-0.545-0.411-1.115-0.814-1.568-1.317-0.877-0.972-1.604-2.062-1.944-3.353-0.24-0.907-0.43-1.828-0.639-2.744-0.354-1.554-0.237-3.133-0.211-4.704 0.012-0.765 0.098-1.539 0.246-2.289 0.15-0.758 0.336-1.53 0.662-2.222 0.228-0.481 0.693-0.866 1.101-1.241 0.418-0.385 0.892-0.71 1.346-1.054 0.595-0.45 1.195-0.891 1.79-1.34 0.596-0.449 1.188-0.903 1.782-1.355 0.123-0.094 0.241-0.203 0.378-0.271 0.572-0.286 0.759-0.772 0.843-1.377 0.089-0.642 0.285-1.27 0.429-1.904 0.105-0.463 0.203-0.93 0.305-1.394 0.109-0.494 0.219-0.989 0.328-1.483 0.1-0.454 0.203-0.908 0.299-1.364 0.053-0.253 0.078-0.514 0.155-0.759 0.029-0.093 0.156-0.181 0.257-0.219 0.102-0.038 0.228-0.011 0.342-0.011C31.237 20.904 40.7 20.904 50.164 20.904zM50.229 32.063c0-0.003 0-0.006 0-0.008-9.882 0-19.764 0-29.645-0.002-0.235 0-0.444 0.017-0.627 0.201-0.241 0.242-0.514 0.452-0.77 0.679-1.226 1.092-2.448 2.187-3.675 3.274-0.202 0.179-0.286 0.375-0.284 0.652 0.013 1.694 0.013 3.389 0.004 5.082-0.005 0.773 0.087 1.531 0.238 2.288 0.204 1.021 0.55 1.977 1.169 2.817 0.647 0.878 1.503 1.492 2.541 1.82 0.756 0.239 1.544 0.324 2.341 0.271 0.685-0.044 1.381-0.033 2.051-0.157 0.666-0.124 1.312-0.367 1.955-0.59 1.136-0.395 2.023-1.153 2.735-2.086 1.062-1.391 1.461-3.023 1.536-4.744 0.013-0.263 0.092-0.336 0.346-0.333 1.025 0.012 2.049 0.012 3.074 0 0.255-0.002 0.351 0.069 0.341 0.335-0.035 0.907 0.039 1.804 0.236 2.696 0.186 0.846 0.443 1.658 0.903 2.397 0.949 1.522 2.356 2.32 4.107 2.458 0.864 0.067 1.745-0.049 2.618-0.096 0.837-0.044 1.621-0.298 2.395-0.606 1.472-0.587 2.557-1.599 3.312-2.97 0.663-1.203 0.931-2.518 0.989-3.878 0.011-0.26 0.086-0.338 0.344-0.335 1.024 0.013 2.049 0.012 3.074 0 0.252-0.002 0.338 0.066 0.346 0.333 0.015 0.623 0.063 1.245 0.114 1.867 0.069 0.853 0.287 1.667 0.629 2.455 0.837 1.926 2.325 3.001 4.378 3.223 0.89 0.096 1.807-0.041 2.71-0.084 0.849-0.041 1.642-0.296 2.427-0.609 1.462-0.584 2.544-1.589 3.297-2.945 0.673-1.208 0.947-2.535 1-3.907 0.011-0.266 0.098-0.333 0.349-0.331 1.024 0.012 2.05 0.013 3.074 0 0.259-0.003 0.348 0.075 0.338 0.337-0.034 0.908 0.043 1.804 0.235 2.697 0.182 0.838 0.451 1.635 0.896 2.368 0.937 1.547 2.357 2.347 4.12 2.488 1.498 0.12 2.991 0.009 4.436-0.479 0.833-0.282 1.606-0.667 2.281-1.235 0.948-0.8 1.648-1.778 2.055-2.952 0.314-0.904 0.526-1.837 0.542-2.796 0.027-1.641-0.034-3.285 0.036-4.924 0.036-0.845-0.199-1.403-0.909-1.894-1.09-0.753-2.102-1.621-3.145-2.443-0.286-0.226-0.586-0.339-0.969-0.339C69.93 32.066 60.08 32.063 50.229 32.063zM49.683 48.327c-0.233 0.3-0.42 0.56-0.627 0.801-0.669 0.779-1.476 1.399-2.334 1.947-0.654 0.417-1.349 0.758-2.108 0.947-0.532 0.132-1.061 0.282-1.596 0.393-0.646 0.135-1.3 0.239-1.951 0.353-0.144 0.025-0.29 0.042-0.435 0.046-0.571 0.018-1.147 0.078-1.712 0.027-0.583-0.053-1.158-0.211-1.734-0.333-0.405-0.086-0.825-0.142-1.203-0.297-0.562-0.229-1.109-0.503-1.63-0.814-0.991-0.591-1.837-1.344-2.452-2.338-0.149-0.242-0.338-0.458-0.537-0.722-0.247 0.308-0.455 0.578-0.673 0.836-0.658 0.777-1.476 1.363-2.313 1.925-0.639 0.429-1.345 0.718-2.084 0.923-0.588 0.164-1.174 0.332-1.768 0.469-0.493 0.113-0.994 0.213-1.497 0.262-0.29 0.028-0.395 0.1-0.395 0.403 0.008 7.278 0.009 14.556 0.001 21.833 0 0.31 0.102 0.384 0.395 0.383 10.551-0.008 21.103-0.008 31.653-0.01 0.475 0 0.476-0.003 0.476-0.483 0-6.054 0-12.109 0-18.163 0-0.423 0-0.423 0.43-0.423 5.333 0 10.666 0 15.999 0 0.493 0 0.494 0 0.494 0.486 0 6.044 0 12.087 0 18.131 0 0.447 0.001 0.448 0.45 0.448 1.569 0 3.137 0 4.706 0 0.509 0 0.509-0.001 0.509-0.516 0-7.184 0-14.368 0-21.551 0-0.052 0-0.104-0.001-0.157-0.005-0.351-0.094-0.413-0.442-0.332-0.171 0.04-0.349 0.081-0.522 0.074-0.498-0.021-1.001-0.026-1.49-0.108-0.876-0.147-1.756-0.3-2.611-0.535-1.086-0.298-2.004-0.945-2.837-1.677-0.492-0.432-0.873-0.992-1.295-1.502-0.182-0.219-0.343-0.455-0.541-0.718-0.254 0.317-0.464 0.598-0.693 0.862-0.536 0.615-1.179 1.105-1.842 1.576-0.771 0.548-1.591 0.997-2.51 1.242-0.54 0.144-1.08 0.288-1.625 0.401-0.647 0.135-1.3 0.238-1.952 0.353-0.173 0.03-0.348 0.074-0.522 0.078-0.542 0.011-1.089 0.052-1.625-0.005-0.583-0.061-1.161-0.199-1.733-0.337-0.58-0.141-1.173-0.27-1.719-0.502-0.547-0.233-1.059-0.562-1.555-0.896-0.638-0.43-1.222-0.926-1.662-1.574C50.302 49.141 50.008 48.767 49.683 48.327zM76.963 28.405c-0.053-0.299-0.086-0.544-0.14-0.785-0.151-0.696-0.346-1.384-0.457-2.086-0.133-0.849-0.137-0.883-0.993-0.883-16.875 0-33.749 0-50.623 0-0.126 0-0.252 0.006-0.377-0.001-0.208-0.011-0.302 0.104-0.341 0.289-0.216 1.032-0.434 2.063-0.649 3.095-0.083 0.398-0.082 0.399 0.312 0.399 17.626 0 35.253 0 52.88-0.001C76.697 28.432 76.82 28.415 76.963 28.405z" fill="#000000" data-fill-palette-color="accent"></path><path fill-rule="evenodd" clip-rule="evenodd" d="M38.209 70.453c-3.619 0-7.236 0-10.854 0-0.431 0-0.432 0-0.432-0.422 0-4.444 0-8.888 0-13.332 0-0.406 0.001-0.407 0.415-0.407 7.247 0 14.492 0 21.739 0 0.415 0 0.416 0.001 0.416 0.406 0 4.455-0.003 8.908 0.008 13.363 0 0.324-0.096 0.399-0.407 0.399C45.465 70.449 41.837 70.453 38.209 70.453zM38.193 66.707c2.395 0 4.789-0.004 7.183 0.005 0.281 0.001 0.378-0.073 0.377-0.368-0.012-1.976-0.012-3.952 0-5.928 0.001-0.308-0.096-0.384-0.393-0.384-4.769 0.008-9.537 0.008-14.305 0-0.296 0-0.395 0.076-0.392 0.384 0.013 1.966 0.014 3.932-0.001 5.897-0.003 0.324 0.099 0.401 0.409 0.4C33.445 66.701 35.819 66.707 38.193 66.707z" fill="#000000" data-fill-palette-color="accent"></path></g></g></svg></g></svg></g></svg></g><defs></defs></svg><rect width="395.52" height="110.38950418202005" fill="none" stroke="none" visibility="hidden"></rect></g></svg></g></svg>